# xmcd CD database file generated by OrangeCD 5.1
#
# Track frame offsets:
#	150
#	30264
#	49563
#	63618
#	99428
#	113195
#	151632
#	180857
#	213514
#	244501
#	267475
#
# Disc length: 4363 seconds
#
# Revision: 1
# Processed by: cddbd v1.4PL0 Copyright (c) Steve Scherf et al.
# Submitted via: OrangeCD 5.1
#
DISCID=8311090b
DTITLE=Moor Gary - Blues For Greeny and bonus tracks
DYEAR=1995
DGENRE=Blues
TTITLE0=If You Be My Baby
TTITLE1=Merry Go Round
TTITLE2=I Loved Another Woman
TTITLE3=Need Your Love So Bad
TTITLE4=The Supernatural
TTITLE5=Driftin'
TTITLE6=Love That Burns
TTITLE7=Looking For Somebody
TTITLE8=All Your Loving (Eric Clapton)
TTITLE9=I Go Back Home (Eric Clapton)
TTITLE10=Same Old Blues (Eric Clapton)
EXTD=
EXTT0=
EXTT1=
EXTT2=
EXTT3=
EXTT4=
EXTT5=
EXTT6=
EXTT7=
EXTT8=
EXTT9=
EXTT10=
PLAYORDER=
